<svg width="300" height="225" fill="none" xmlns="http://www.w3.org/2000/svg"><g clip-path="url(#clip0)"><path d="M287.742 199.491l1.122-4.428a57.5986 57.5986 0 016.1-2.188l.142 2.057.575-2.266c2.57-.735 4.319-1.058 4.319-1.058s-2.362 8.983-7.317 15.85l-5.773 1.014 4.485.647c-.623.75-1.293 1.46-2.006 2.126-7.207 6.69-15.235 9.759-17.93 6.856-2.696-2.904.962-10.681 8.17-17.371 2.234-2.074 5.041-3.739 7.85-5.049l.263 3.81z" fill="#E6E6E6"/><path d="M277.065 194.682l-1.327-4.37a57.2733 57.2733 0 014.09-5.026l1.185 1.688-.68-2.238c1.821-1.957 3.151-3.138 3.151-3.138s2.621 8.911 1.93 17.351l-4.418 3.852 4.173-1.765c-.146.964-.352 1.919-.618 2.857-2.712 9.453-7.997 16.23-11.805 15.137-3.809-1.092-4.697-9.641-1.986-19.093.841-2.931 2.383-5.806 4.112-8.38l2.193 3.125z" fill="#E6E6E6"/><path d="M299.324 218.715H125v.676h174.324v-.676z" fill="#3F3D56"/><path d="M8.1818 88.3024c-2.3596-3.5025-3.3739-9.7231 1.0143-12.7887 2.1763-1.5204 4.8182-1.3349 7.1055-.6659 3.1636.9255 5.977 2.812 8.4106 4.9227 2.807 2.4345 5.2102 5.2887 7.5798 8.1441 2.3394 2.8188 4.7102 5.6048 7.1971 8.2916a170.0418 170.0418 0 0015.6673 14.8968 168.8554 168.8554 0 0017.0741 12.563 160.1323 160.1323 0 009.0499 5.403 80.6781 80.6781 0 008.8556 4.39c4.042 1.626 10.968 3.897 14.552-.662 1.901-2.418 1.996-5.698 1.567-8.454-.519-3.331-1.828-6.44-3.117-9.477-5.9955-14.126-12.0614-28.2182-18.0926-42.3267-1.4077-3.2928-2.8573-6.573-4.0266-9.9762-1.0947-3.1862-2.006-6.5455-2.0276-10.0156-.0189-3.031.6396-6.4513 2.9453-8.7859 1.9122-1.9362 4.5913-2.5771 7.1141-2.5624 6.2459.0364 12.1144 3.2157 16.9654 6.5666 6.027 4.1632 11.351 9.2205 17.354 13.415 4.848 3.3869 10.549 6.456 16.736 6.8446 2.372.149 4.889-.1674 7.05-1.4634a9.7499 9.7499 0 004.217-5.6727c.81-2.7261.709-5.6057.279-8.2927a34.2562 34.2562 0 00-2.895-9.0792c-2.925-6.2502-6.922-11.8514-10.364-17.7835-1.688-2.9093-3.336-5.9075-4.388-9.1524-.892-2.749-1.617-6.0028-.736-8.9834 1.817-6.1496 9.203-3.8356 12.949-2.0604a59.9527 59.9527 0 017.319 4.2627c.503.3325.993-.5496.492-.8806a57.5594 57.5594 0 00-7.715-4.4468c-2.283-1.0447-4.796-1.956-7.415-1.906-2.2.0421-4.417.9635-5.708 2.9317-1.528 2.3286-1.423 5.3391-1.012 7.8374.544 3.3037 1.842 6.3556 3.339 9.2594 1.576 3.0583 3.375 5.9825 5.184 8.8936 3.616 5.8171 7.576 11.7019 9.38 18.4931 1.261 4.7506 2.058 12.1706-3.076 15.5608-2.279 1.505-5.072 1.7228-7.594 1.4393-3.048-.3426-5.951-1.3556-8.662-2.628-12.642-5.9335-21.064-18.2538-34.5417-22.81-4.5825-1.5491-10.9952-2.5382-15.0278 1.6509-2.0949 2.1761-2.9351 5.1974-3.1239 8.0363-.226 3.4003.4838 6.7466 1.4485 9.8956a97.8908 97.8908 0 003.7291 9.7088c1.5109 3.5402 3.0239 7.0795 4.5388 10.6178l9.1836 21.4823 4.5624 10.674c1.393 3.258 2.886 6.531 3.612 10.063.594 2.892.763 6.871-1.784 9.197-2.023 1.847-4.9785 1.762-7.3465 1.333-3.0661-.556-5.9507-1.77-8.6961-3.109-3.1666-1.545-6.2492-3.259-9.2756-5.042a163.9501 163.9501 0 01-17.9001-12.223 170.6103 170.6103 0 01-16.2313-14.4753 167.9725 167.9725 0 01-7.4688-8.0834c-2.4762-2.8639-4.8015-5.8634-7.3661-8.6482-2.3197-2.5188-4.8592-4.8538-7.8115-6.6303-2.4652-1.4833-5.3794-2.7237-8.4113-2.626a7.6246 7.6246 0 00-5.5986 2.6864 9.4031 9.4031 0 00-2.0757 5.9555 12.1169 12.1169 0 002.163 6.8322c.337.5003 1.192-.035.8534-.5375zM46.8292 6.8031H6.3496v35.9415h40.4796V6.8031z" fill="#E6E6E6"/><path d="M46.8292 71.4978H6.3496v35.9412h40.4796V71.4978zM176.897 6.8031h-40.48v35.9415h40.48V6.8031z" fill="#00BAFC"/><path d="M176.897 71.4978h-40.48v35.9412h40.48V71.4978z" fill="#E6E6E6"/><path d="M112.323 6.8031h-40.48v35.9415h40.48V6.8031zM112.323 71.4978h-40.48v35.9412h40.48V71.4978z" fill="#00BAFC"/><path d="M71.9595 13.5135c3.7316 0 6.7567-3.0251 6.7567-6.7567C78.7162 3.025 75.6911 0 71.9595 0c-3.7317 0-6.7568 3.0251-6.7568 6.7568 0 3.7316 3.0251 6.7567 6.7568 6.7567zM137.162 13.5135c3.732 0 6.757-3.0251 6.757-6.7567C143.919 3.025 140.894 0 137.162 0c-3.731 0-6.757 3.0251-6.757 6.7568 0 3.7316 3.026 6.7567 6.757 6.7567zM6.7568 78.3784c3.7316 0 6.7567-3.0251 6.7567-6.7568 0-3.7316-3.0251-6.7567-6.7567-6.7567C3.025 64.8649 0 67.89 0 71.6216c0 3.7317 3.0251 6.7568 6.7568 6.7568zM71.9595 78.3784c3.7316 0 6.7567-3.0251 6.7567-6.7568 0-3.7316-3.0251-6.7567-6.7567-6.7567-3.7317 0-6.7568 3.0251-6.7568 6.7567 0 3.7317 3.0251 6.7568 6.7568 6.7568z" fill="#3F3D56"/><path d="M229.493 215.249s-9.443.727-8.474 4.117c.968 3.39 8.474 2.905 8.474 2.905s5.812-.484 8.959.485c3.148.968 6.78 0 7.022-1.695s-1.695-2.906-1.695-2.906l-1.21-2.421-13.076-.485z" fill="#2F2E41"/><path d="M204.675 139.583l-.969 3.874s-4.358 8.959.969 8.959 3.39-8.233 3.39-8.233l.484-3.874-3.874-.726zM251.406 136.435l.969 3.874s4.358 8.959-.969 8.959-3.389-8.233-3.389-8.233l-.485-3.874 3.874-.726zM226.225 70.5746c5.75 0 10.411-4.6615 10.411-10.4118 0-5.7502-4.661-10.4117-10.411-10.4117-5.751 0-10.412 4.6615-10.412 10.4117 0 5.7503 4.661 10.4118 10.412 10.4118z" fill="#9F616A"/><path d="M223.077 68.1533s1.21 5.5691.484 8.2325c-.726 2.6635 15.012-.4842 15.012-.4842s-5.569-9.2011-5.327-9.4432l-10.169 1.6949z" fill="#9F616A"/><path d="M225.498 74.4488s-4.358-1.2107-5.811.2421c-1.453 1.4528-9.928 5.5691-9.928 5.5691l5.812 35.594 25.182-5.569 4.358-33.657s-6.866-4.0264-8.034-3.2239c-1.167.8026-11.579 1.0447-11.579 1.0447z" fill="#D0CDE1"/><path d="M211.697 80.5021l-1.163-.6233s-4.407.8654-4.164 4.2553c.242 3.3898 1.21 22.2759 1.21 22.2759l-3.874 34.141 7.022 1.211 7.022-28.572-6.053-32.6879zM244.385 77.3544l1.162-.6233s4.407.8654 4.164 4.2553c-.242 3.3898-1.21 22.2766-1.21 22.2766l3.874 34.141-7.022 1.21-7.022-28.572 6.054-32.6876z" fill="#D0CDE1"/><path d="M215.813 112.222l-.969 14.77-3.147 29.54 4.6 61.26 15.981.484-4.843-58.354 4.843-20.097 15.829-.587s1.12-23.142-7.839-30.406l-24.455 3.39z" fill="#2F2E41"/><path d="M233.246 136.435l-2.542 53.39-.848 26.998 14.287 1.453 3.604-79.398-5.542-5.591-8.959 3.148zM230.825 46.3612s-9.443-1.2106-12.107 3.3899c0 0-.726 3.3899-3.147 4.6005-2.422 1.2107.484 5.327 1.21 6.5376.727 1.2107 2.664 8.2326.485 9.9275-2.18 1.6949 3.874 6.5376 3.874 6.5376s2.905 3.8741.484 6.7797 3.148 3.8742 3.148 3.8742-1.211 8.2325.968 6.0533c0 0 .969 18.6445 10.17 7.0215 9.201-11.622 13.075-17.1911 9.201-21.7916-3.874-4.6006-.969-8.7168-.969-8.7168s1.211-2.4214-1.452-6.0534c-2.664-3.632-2.664-18.16-11.865-18.16zM217.145 216.702s-9.444.727-8.475 4.116c.968 3.39 8.475 2.906 8.475 2.906s5.811-.484 8.958.484c3.148.969 6.78 0 7.022-1.695s-1.695-2.905-1.695-2.905l-1.21-2.422-13.075-.484z" fill="#2F2E41"/></g><defs><clipPath id="clip0"><path fill="#fff" d="M0 0h300v224.593H0z"/></clipPath></defs></svg>